<?xml version="1.0" standalone="no"?>
<!DOCTYPE svg PUBLIC "-//W3C//DTD SVG 20010904//EN"
 "http://www.w3.org/TR/2001/REC-SVG-20010904/DTD/svg10.dtd">
<svg version="1.0" xmlns="http://www.w3.org/2000/svg"
 width="800.000000pt" height="800.000000pt" viewBox="0 0 800.000000 800.000000"
 preserveAspectRatio="xMidYMid meet">
<metadata>
Created by potrace 1.11, written by Peter Selinger 2001-2013
</metadata>
<g transform="translate(0.000000,800.000000) scale(0.100000,-0.100000)"
fill="#000000" stroke="none">
<path d="M5771 5304 c-12 -15 -22 -36 -22 -48 -1 -11 -3 -32 -4 -46 -2 -14 -6
-97 -10 -185 -4 -88 -9 -185 -10 -215 -2 -30 -4 -81 -6 -112 -1 -32 -5 -58 -8
-59 -3 0 -25 -2 -49 -3 -29 -2 -50 -10 -65 -24 -20 -20 -22 -33 -22 -127 0
-127 12 -147 92 -149 l48 -1 1 -400 c1 -516 7 -580 66 -700 41 -85 115 -139
219 -161 32 -6 264 -5 283 2 29 11 45 66 41 144 -1 41 -6 82 -9 91 -11 27 -53
39 -130 39 -141 0 -142 4 -142 569 l1 416 85 1 c106 0 128 8 145 47 18 46 14
187 -7 219 -21 31 -32 34 -135 34 -48 -1 -84 3 -84 9 -1 6 -2 141 -3 300 -1
160 -6 305 -10 322 -12 52 -37 63 -147 63 -93 0 -98 -1 -118 -26z"/>
<path d="M730 5289 c0 -5 91 -166 201 -357 111 -191 213 -367 227 -392 13 -25
37 -65 52 -90 15 -25 52 -88 82 -140 110 -188 322 -555 333 -575 5 -11 18 -31
27 -45 9 -14 29 -48 45 -77 24 -45 142 -247 212 -367 13 -23 35 -61 49 -86 41
-74 45 -76 71 -28 12 24 38 70 58 103 19 33 46 78 58 100 13 22 47 81 75 130
29 50 102 176 163 280 60 105 148 255 195 335 46 80 95 163 107 185 13 22 47
81 76 130 28 50 63 110 77 135 13 25 27 50 32 55 4 6 19 30 32 55 14 25 57 99
95 165 39 66 84 145 102 175 17 30 36 62 41 70 17 28 135 234 138 241 2 4
-216 8 -485 7 -428 0 -490 -2 -505 -15 -10 -9 -18 -20 -18 -24 0 -5 -14 -32
-32 -61 -17 -29 -77 -133 -134 -231 l-102 -179 -49 84 c-27 46 -93 160 -148
255 l-99 171 -488 0 c-299 0 -488 -4 -488 -9z"/>
<path d="M4360 5220 c-102 -27 -195 -52 -207 -55 -44 -11 -58 -50 -60 -164 -2
-162 22 -197 119 -173 23 6 44 9 47 7 2 -3 4 -387 5 -854 1 -847 1 -850 22
-878 21 -28 22 -28 150 -31 71 -1 139 0 151 3 13 3 30 20 39 37 15 29 17 123
17 1043 0 555 -3 1027 -7 1047 -7 40 -37 69 -71 67 -11 0 -103 -23 -205 -49z"/>
<path d="M5205 5249 c-88 -24 -79 -22 -210 -55 -127 -32 -155 -52 -156 -111
-3 -202 -2 -211 27 -240 21 -21 31 -24 57 -18 18 3 44 9 59 11 l27 5 0 -850
c0 -921 -1 -900 53 -915 13 -3 78 -6 146 -6 119 0 124 1 146 25 13 14 26 36
28 48 2 12 4 483 3 1047 0 965 -1 1027 -18 1053 -21 33 -59 34 -162 6z"/>
<path d="M6413 4625 c-20 -15 -31 -72 -21 -120 4 -22 21 -96 38 -165 17 -69
33 -136 36 -149 3 -13 30 -126 60 -250 50 -205 70 -288 79 -331 2 -8 13 -55
25 -104 12 -49 23 -94 24 -100 1 -6 5 -20 9 -31 3 -11 8 -31 11 -45 3 -14 8
-36 11 -50 21 -92 27 -178 16 -232 -17 -78 -26 -84 -104 -65 -54 14 -65 14
-84 2 -46 -30 -57 -171 -19 -228 36 -52 88 -72 191 -72 133 0 182 31 240 149
23 48 68 200 80 276 3 19 8 49 11 65 3 17 11 57 19 90 7 33 16 82 20 109 3 27
8 53 10 56 3 4 7 22 9 41 2 19 11 66 19 104 9 39 18 84 21 100 3 17 8 44 11
60 3 17 7 39 9 50 9 49 77 404 86 445 5 25 12 61 15 80 3 19 12 67 20 105 23
108 23 170 1 200 -12 17 -28 20 -98 21 -112 2 -145 -17 -154 -91 -1 -11 -3
-20 -4 -20 -1 0 -3 -11 -5 -25 -2 -14 -13 -90 -25 -170 -12 -80 -23 -154 -25
-165 -6 -45 -16 -112 -20 -135 -2 -14 -7 -45 -10 -70 -5 -40 -14 -94 -31 -199
-6 -35 -16 -35 -21 2 -2 12 -19 103 -38 202 -19 99 -42 221 -51 270 -9 50 -17
97 -19 105 -2 8 -10 56 -19 105 -35 187 -37 189 -193 190 -68 0 -121 -4 -130
-10z"/>
<path d="M3495 4361 c-3 -2 -5 -51 -5 -108 l0 -103 -108 0 -108 0 2 -27 c1
-16 3 -33 3 -40 1 -8 30 -12 94 -11 50 0 98 -1 105 -1 9 -1 12 -29 12 -106 l0
-105 40 0 40 0 0 105 c0 77 3 105 13 106 6 0 54 1 105 0 50 0 92 3 93 7 0 4 1
22 2 40 l2 32 -107 0 -107 0 -3 107 -3 107 -33 1 c-18 0 -35 -1 -37 -4z"/>
</g>
</svg>
